<svg width="350" height="600" viewBox="0 0 350 600" fill="none" xmlns="http://www.w3.org/2000/svg">
<g clip-path="url(#clip0_745_9068)">
<path fill-rule="evenodd" clip-rule="evenodd" d="M1217.14 0H-152.572V600L1217.14 598.286V0ZM68.8853 91.6613V300.338L68.9396 507.45C68.9203 508.859 69.0038 510.267 69.1893 511.664C69.8985 516.661 72.3645 521.242 76.1447 524.584C79.925 527.926 84.772 529.811 89.816 529.9H259.096C260.218 529.896 261.339 529.816 262.45 529.661C267.562 528.922 272.237 526.363 275.617 522.456C278.996 518.548 280.855 513.552 280.851 508.384V93.1601C280.913 89.9639 280.334 86.7876 279.147 83.8195C277.586 80.037 274.963 76.788 271.595 74.4653C268.227 72.1427 264.259 70.8459 260.17 70.7317C255.249 70.6376 250.318 70.669 245.387 70.7004C242.921 70.716 240.456 70.7317 237.991 70.7317C235.494 70.7426 234.485 71.7418 234.485 74.2399C234.434 77.8025 232.993 81.204 230.47 83.7183C227.947 86.2326 224.541 87.6604 220.98 87.6969H128.996C127.198 87.7185 125.415 87.3834 123.748 86.7112C122.081 86.039 120.563 85.0429 119.283 83.7804C118.003 82.518 116.986 81.0143 116.29 79.3563C115.595 77.6982 115.234 75.9186 115.23 74.1204C115.208 71.8722 114.166 70.786 111.843 70.786H91.325C89.9206 70.763 88.5164 70.8429 87.1236 71.025C82.1261 71.73 77.5439 74.1955 74.2007 77.9782C70.8576 81.7609 68.9729 86.6127 68.8853 91.6613Z" fill="#F5F8FB"/>
<path d="M293.035 172.816H293.274C293.795 172.903 294.359 172.946 294.153 173.718C294.249 174.324 294.285 174.939 294.262 175.553V223.342C294.329 224.047 294.247 224.757 294.023 225.428C294.011 225.612 293.947 225.789 293.838 225.938H293.035C293.035 213.817 293.035 201.692 293.035 189.564C293.002 184.047 293.024 178.41 293.035 172.816Z" fill="#363636"/>
<path fill-rule="evenodd" clip-rule="evenodd" d="M61.2673 79.5183C61.9077 78.6982 62.5179 77.8582 63.1271 77.0196C64.5834 75.015 66.0341 73.0181 67.8787 71.3181C73.2578 66.199 80.1159 62.9109 87.474 61.9232C88.9549 61.7514 90.4452 61.6753 91.9359 61.6951H257.676C265.873 61.6357 273.818 64.5269 280.062 69.841C286.389 75.1271 290.624 82.4985 292.003 90.6293C292.253 91.9689 292.376 93.3289 292.373 94.6914V505.658C292.23 510.17 291.166 514.605 289.246 518.691C289.168 518.878 289.107 519.07 289.047 519.259L289.022 519.337C289.007 519.386 288.991 519.435 288.975 519.484C288.854 520.276 288.532 521.024 288.041 521.656C284.846 527.1 280.289 531.618 274.818 534.766C269.557 537.635 263.657 539.129 257.666 539.11C202.43 539.059 147.19 539.059 91.9467 539.11C85.9547 539.13 80.0547 537.636 74.7941 534.766C71.951 533.046 69.3234 530.993 66.9668 528.651C65.0404 526.673 63.34 524.488 61.897 522.134C61.1479 520.57 60.3771 519.028 59.5629 517.496C58.6672 515.469 57.9832 513.354 57.522 511.186C56.8703 507.897 56.5755 504.546 56.6426 501.194V99.264C56.4708 93.3111 57.5584 87.389 59.8343 81.8861C60.0687 80.9729 60.5672 80.1493 61.2673 79.5183ZM68.8873 91.6612V300.338L68.9416 507.45C68.9222 508.859 69.0057 510.267 69.1912 511.664C69.9004 516.661 72.3664 521.241 76.1467 524.584C79.9269 527.926 84.7739 529.811 89.8179 529.9H259.098C260.22 529.896 261.341 529.816 262.452 529.661C267.564 528.922 272.239 526.363 275.618 522.455C278.998 518.547 280.857 513.552 280.853 508.384V93.1601C280.915 89.9638 280.336 86.7875 279.149 83.8194C277.588 80.0369 274.965 76.7879 271.597 74.4653C268.229 72.1426 264.261 70.8458 260.172 70.7317C255.251 70.6375 250.32 70.6689 245.389 70.7003C242.923 70.716 240.458 70.7317 237.993 70.7317C235.496 70.7425 234.487 71.7418 234.487 74.2398C234.436 77.8024 232.995 81.204 230.472 83.7183C227.948 86.2326 224.543 87.6604 220.982 87.6969H128.998C127.2 87.7184 125.417 87.3834 123.75 86.7111C122.083 86.0389 120.565 85.0428 119.285 83.7804C118.005 82.518 116.988 81.0143 116.292 79.3562C115.597 77.6981 115.236 75.9186 115.232 74.1204C115.21 71.8721 114.168 70.786 111.845 70.786H91.3269C89.9225 70.763 88.5183 70.8428 87.1256 71.0249C82.128 71.73 77.5458 74.1955 74.2027 77.9782C70.8595 81.7609 68.9748 86.6126 68.8873 91.6612Z" fill="#454545"/>
<path d="M294.12 173.381H294.403C294.605 174.087 294.704 174.819 294.696 175.553C294.696 191.555 294.696 207.554 294.696 223.549C294.747 223.919 294.723 224.296 294.624 224.656C294.525 225.017 294.354 225.353 294.12 225.645H293.86C293.86 208.788 293.86 191.935 293.86 175.086C293.86 174.543 293.61 173.891 294.12 173.381Z" fill="#383838"/>
<path d="M56.7076 238.114H55.8825C55.5403 237.53 55.392 236.853 55.4591 236.18C55.4591 226.043 55.4591 215.935 55.4591 205.856C55.4591 205.28 55.546 204.77 55.6002 204.172C55.9188 203.956 56.3023 203.856 56.6859 203.89L56.7076 238.114Z" fill="#363636"/>
<path d="M56.6953 143.947C55.4577 144.088 55.0234 143.469 55.0234 142.296C55.0234 137.655 55.0234 133.013 55.0234 128.372C55.0234 127.232 55.3817 126.482 56.6953 126.482V143.947Z" fill="#383838"/>
<path d="M56.7075 194.908C56.3167 194.908 55.8933 195.049 55.6219 194.636C55.4903 194.012 55.4356 193.373 55.4591 192.736V163.041C55.4346 162.436 55.4856 161.83 55.6111 161.238C55.8933 160.825 56.3167 160.977 56.6967 160.967L56.7075 194.908Z" fill="#363636"/>
<path d="M189.282 80.3655C189.293 80.4749 189.271 80.585 189.218 80.6817C189.166 80.7784 189.087 80.8574 188.989 80.9086C188.151 81.0191 187.306 81.0699 186.46 81.0607H163.26C162.417 81.0555 161.575 80.9902 160.742 80.8652C160.643 80.8144 160.562 80.7359 160.508 80.6393C160.454 80.5428 160.43 80.4325 160.438 80.3221C160.112 79.6053 160.438 79.236 161.122 79.1056C161.479 79.0385 161.844 79.0166 162.207 79.0405H187.469C187.833 79.0166 188.197 79.0385 188.555 79.1056C189.25 79.3011 189.641 79.6487 189.282 80.3655Z" fill="#C6C6C6"/>
<path d="M189.282 80.3656C189.282 79.2795 188.522 79.5076 187.904 79.5076H165.627C164.259 79.5076 162.902 79.5076 161.534 79.5076C160.904 79.5076 160.383 79.5076 160.448 80.3765C159.949 79.7899 160.199 79.236 160.448 78.6712C161.117 78.3247 161.87 78.1741 162.62 78.2368H187.024C187.774 78.1758 188.527 78.3263 189.196 78.6712C189.532 79.2252 189.793 79.7791 189.282 80.3656Z" fill="#C4C4C4"/>
<path d="M189.249 78.693H160.48C160.68 78.3735 160.971 78.121 161.315 77.9681C161.66 77.8153 162.042 77.7689 162.413 77.8349H187.317C187.688 77.7703 188.069 77.8174 188.413 77.9702C188.757 78.1229 189.048 78.3745 189.249 78.693Z" fill="#C9C9C9"/>
<path d="M160.74 80.8652C161.109 80.4416 161.609 80.5937 162.065 80.5937H187.663C188.109 80.5937 188.608 80.4416 188.988 80.8652C188.532 81.4843 187.902 81.4626 187.197 81.4626H162.499C162.179 81.5168 161.851 81.4906 161.544 81.3863C161.237 81.282 160.961 81.103 160.74 80.8652Z" fill="#C2C2C2"/>
<path d="M196.318 79.1926C196.357 78.4089 196.676 77.6654 197.219 77.0987C197.761 76.5321 198.49 76.1803 199.271 76.108C200.12 75.9778 200.987 76.1711 201.701 76.6497C202.415 77.1284 202.923 77.8575 203.125 78.6929C203.133 79.4292 202.933 80.1528 202.549 80.7809C202.165 81.409 201.612 81.9162 200.954 82.2446C200.353 82.5282 199.671 82.5866 199.032 82.4092C198.392 82.2318 197.837 81.8303 197.469 81.2779C197.067 80.6045 196.155 80.1918 196.318 79.1926Z" fill="#9E9E9E"/>
<path d="M196.317 79.1926C196.882 79.8877 197.403 80.6263 198 81.2888C198.264 81.5997 198.602 81.8387 198.983 81.9835C199.363 82.1282 199.775 82.1739 200.178 82.1164C200.582 82.059 200.964 81.9001 201.289 81.6547C201.615 81.4093 201.872 81.0853 202.039 80.7132C202.343 79.9746 203.439 79.627 203.124 78.6495C203.376 79.3208 203.407 80.0552 203.212 80.7452C203.016 81.4351 202.605 82.0444 202.039 82.4835C201.433 82.93 200.706 83.1825 199.954 83.2077C199.203 83.2329 198.461 83.0297 197.826 82.6247C197.238 82.2926 196.773 81.7787 196.501 81.1599C196.229 80.5412 196.165 79.851 196.317 79.1926V79.1926Z" fill="#BFBFBF"/>
<path d="M55.5999 204.216C55.8557 204.718 55.954 205.286 55.8822 205.845V238.114H55.5999C55.1957 237.598 54.9914 236.954 55.0246 236.3C55.0246 226.206 55.0246 216.109 55.0246 206.008C54.9679 205.685 54.9906 205.353 55.0909 205.041C55.1911 204.728 55.3658 204.445 55.5999 204.216V204.216Z" fill="#383838"/>
<path d="M55.6102 161.238C56.0661 161.651 55.8707 162.205 55.8816 162.693C55.8816 172.831 55.8816 182.968 55.8816 193.105C55.8816 193.594 56.0661 194.191 55.5993 194.56C54.9371 194.256 55.0348 193.659 55.0348 193.105V162.693C55.0239 162.129 54.9371 161.52 55.6102 161.238Z" fill="#383838"/>
<path d="M198.033 78.932C198.172 78.5113 198.471 78.1621 198.864 77.9591C199.258 77.756 199.716 77.7154 200.139 77.8458C200.369 77.8688 200.592 77.9373 200.795 78.0472C200.999 78.157 201.178 78.3062 201.324 78.486C201.469 78.6658 201.578 78.8727 201.642 79.0947C201.707 79.3166 201.728 79.5493 201.702 79.7791C201.233 80.0444 200.713 80.2086 200.176 80.2609C199.64 80.3133 199.098 80.2528 198.586 80.0832C197.989 79.9746 197.718 79.5619 198.033 78.932Z" fill="#C1C1C1"/>
<path d="M198.033 78.9319C198.033 79.6053 198.326 79.8116 198.956 79.7899C199.868 79.7899 200.79 79.7899 201.702 79.7899C201.246 81.2019 200.237 81.8427 199.118 81.43C198.65 81.2344 198.275 80.8652 198.073 80.3995C197.871 79.9339 197.856 79.4079 198.033 78.9319V78.9319Z" fill="#A3A3A3"/>
</g>
<defs>
<clipPath id="clip0_745_9068">
<rect width="350" height="600" fill="white"/>
</clipPath>
</defs>
</svg>
